<?xml version="1.0" encoding="utf-8" standalone="no"?>
<!DOCTYPE svg PUBLIC "-//W3C//DTD SVG 1.1//EN"
  "http://www.w3.org/Graphics/SVG/1.1/DTD/svg11.dtd">
<svg xmlns:xlink="http://www.w3.org/1999/xlink" width="189.03pt" height="20.39pt" viewBox="0 0 189.03 20.39" xmlns="http://www.w3.org/2000/svg" version="1.1">
 <metadata>
  <rdf:RDF xmlns:dc="http://purl.org/dc/elements/1.1/" xmlns:cc="http://creativecommons.org/ns#" xmlns:rdf="http://www.w3.org/1999/02/22-rdf-syntax-ns#">
   <cc:Work>
    <dc:type rdf:resource="http://purl.org/dc/dcmitype/StillImage"/>
    <dc:format>image/svg+xml</dc:format>
    <dc:creator>
     <cc:Agent>
      <dc:title>Matplotlib v3.10.9, https://matplotlib.org/</dc:title>
     </cc:Agent>
    </dc:creator>
   </cc:Work>
  </rdf:RDF>
 </metadata>
 <defs>
  <style type="text/css">*{stroke-linejoin: round; stroke-linecap: butt}</style>
 </defs>
 <g id="figure_1">
  <g id="patch_1">
   <path d="M 0 20.39 
L 189.03 20.39 
L 189.03 -0 
L 0 -0 
L 0 20.39 
z
" style="fill: none; opacity: 0"/>
  </g>
  <g id="text_1">
   <!-- $r_i=\mathrm{mid}_i-\gamma q^\top\Sigma l_i(T_{\max}-t)$ -->
   <g transform="translate(1.44 15.38) scale(0.17 -0.17)">
    <defs>
     <path id="STIXGeneral-Italic-72" d="M 1126 1427 
L 1229 1651 
Q 1446 2131 1830 2534 
Q 2106 2822 2336 2822 
Q 2470 2822 2553 2732 
Q 2637 2643 2637 2496 
Q 2637 2349 2557 2249 
Q 2477 2150 2336 2150 
Q 2214 2150 2112 2317 
Q 2061 2406 2010 2406 
Q 1837 2406 1485 1805 
Q 1267 1434 1136 1104 
Q 1005 774 774 0 
L 288 0 
L 806 1869 
Q 909 2246 909 2394 
Q 909 2560 666 2560 
Q 614 2560 467 2541 
L 467 2650 
L 1459 2822 
L 1478 2810 
L 1126 1427 
z
" transform="scale(0.015625)"/>
     <path id="STIXGeneral-Italic-69" d="M 1690 3834 
Q 1690 3699 1597 3603 
Q 1504 3507 1376 3507 
Q 1235 3507 1152 3600 
Q 1069 3693 1069 3846 
Q 1069 3994 1155 4090 
Q 1242 4186 1370 4186 
Q 1498 4186 1594 4080 
Q 1690 3974 1690 3834 
z
M 1421 730 
L 1504 659 
Q 1235 243 1049 86 
Q 864 -70 627 -70 
Q 314 -70 314 282 
Q 314 467 454 992 
L 762 2125 
Q 819 2330 819 2406 
Q 819 2502 745 2528 
Q 672 2554 410 2560 
L 410 2662 
Q 704 2688 1434 2822 
L 1459 2803 
L 858 608 
Q 794 390 794 326 
Q 794 230 883 230 
Q 1043 230 1421 730 
z
" transform="scale(0.015625)"/>
     <path id="STIXGeneral-Regular-3d" d="M 4077 2048 
L 307 2048 
L 307 2470 
L 4077 2470 
L 4077 2048 
z
M 4077 768 
L 307 768 
L 307 1190 
L 4077 1190 
L 4077 768 
z
" transform="scale(0.015625)"/>
     <path id="STIXGeneral-Regular-6d" d="M 4960 0 
L 3565 0 
L 3565 96 
Q 3834 122 3907 208 
Q 3981 294 3981 576 
L 3981 1894 
Q 3981 2278 3869 2444 
Q 3757 2611 3488 2611 
Q 3264 2611 3107 2521 
Q 2950 2432 2803 2221 
L 2803 608 
Q 2803 301 2896 201 
Q 2989 102 3264 96 
L 3264 0 
L 1830 0 
L 1830 96 
Q 2112 115 2189 188 
Q 2266 262 2266 550 
L 2266 1901 
Q 2266 2611 1850 2611 
Q 1670 2611 1468 2531 
Q 1267 2451 1171 2336 
Q 1088 2240 1088 2227 
L 1088 448 
Q 1088 243 1177 176 
Q 1267 109 1523 96 
L 1523 0 
L 102 0 
L 102 96 
Q 371 102 460 195 
Q 550 288 550 563 
L 550 2150 
Q 550 2387 499 2480 
Q 448 2573 326 2573 
Q 230 2573 122 2547 
L 122 2656 
Q 557 2778 1011 2944 
L 1062 2925 
L 1062 2451 
L 1075 2451 
Q 1363 2752 1584 2848 
Q 1805 2944 2054 2944 
Q 2560 2944 2733 2406 
Q 3232 2944 3776 2944 
Q 4518 2944 4518 1792 
L 4518 493 
Q 4518 282 4582 202 
Q 4646 122 4794 109 
L 4960 96 
L 4960 0 
z
" transform="scale(0.015625)"/>
     <path id="STIXGeneral-Regular-69" d="M 1152 4045 
Q 1152 3904 1056 3811 
Q 960 3718 819 3718 
Q 685 3718 592 3811 
Q 499 3904 499 4045 
Q 499 4179 595 4275 
Q 691 4371 826 4371 
Q 966 4371 1059 4275 
Q 1152 4179 1152 4045 
z
M 1619 0 
L 102 0 
L 102 96 
Q 435 115 521 211 
Q 608 307 608 666 
L 608 2118 
Q 608 2342 563 2432 
Q 518 2522 397 2522 
Q 243 2522 128 2490 
L 128 2592 
L 1120 2944 
L 1146 2918 
L 1146 672 
Q 1146 314 1226 218 
Q 1306 122 1619 96 
L 1619 0 
z
" transform="scale(0.015625)"/>
     <path id="STIXGeneral-Regular-64" d="M 3142 269 
L 2202 -64 
L 2176 -45 
L 2176 365 
Q 1869 -64 1357 -64 
Q 826 -64 499 317 
Q 173 698 173 1312 
Q 173 1990 563 2467 
Q 954 2944 1504 2944 
Q 1850 2944 2176 2669 
L 2176 3667 
Q 2176 3866 2118 3930 
Q 2061 3994 1882 3994 
Q 1792 3994 1741 3987 
L 1741 4090 
Q 2323 4243 2682 4371 
L 2714 4358 
L 2714 730 
Q 2714 506 2768 435 
Q 2822 365 2995 365 
Q 3034 365 3142 371 
L 3142 269 
z
M 2176 653 
L 2176 2125 
Q 2176 2381 1981 2573 
Q 1786 2765 1523 2765 
Q 1158 2765 940 2438 
Q 723 2112 723 1568 
Q 723 979 963 624 
Q 1203 269 1606 269 
Q 1907 269 2080 474 
Q 2176 582 2176 653 
z
" transform="scale(0.015625)"/>
     <path id="STIXGeneral-Regular-2212" d="M 3974 1408 
L 410 1408 
L 410 1830 
L 3974 1830 
L 3974 1408 
z
" transform="scale(0.015625)"/>
     <path id="STIXGeneral-Italic-3b3" d="M 2803 2739 
L 1050 250 
Q 1037 32 1030 -73 
Q 1024 -179 998 -406 
Q 973 -634 934 -758 
Q 896 -883 835 -1033 
Q 774 -1184 681 -1251 
Q 589 -1318 467 -1318 
Q 224 -1318 224 -998 
Q 224 -845 329 -608 
Q 435 -371 608 -57 
Q 781 256 845 397 
Q 941 1293 941 1555 
Q 941 2381 634 2381 
Q 538 2381 422 2259 
Q 307 2138 224 1894 
L 122 1894 
Q 358 2784 755 2784 
Q 986 2784 1075 2589 
Q 1165 2394 1165 2029 
Q 1165 1850 1145 1632 
Q 1126 1414 1091 1148 
Q 1056 883 1050 813 
L 2189 2739 
L 2803 2739 
z
" transform="scale(0.015625)"/>
     <path id="STIXGeneral-Italic-71" d="M 3098 2739 
L 2042 -966 
Q 2029 -1018 2029 -1037 
Q 2029 -1235 2394 -1235 
L 2490 -1235 
L 2490 -1338 
L 973 -1338 
L 973 -1235 
Q 1267 -1216 1382 -1139 
Q 1498 -1062 1555 -877 
L 2131 979 
Q 1754 378 1466 154 
Q 1178 -70 800 -70 
Q 499 -70 329 128 
Q 160 326 160 672 
Q 160 1165 445 1670 
Q 730 2176 1168 2499 
Q 1606 2822 2035 2822 
Q 2438 2822 2528 2426 
L 2630 2739 
L 3098 2739 
z
M 2432 2298 
Q 2432 2458 2323 2570 
Q 2214 2682 2054 2682 
Q 1792 2682 1459 2368 
Q 1133 2054 921 1606 
Q 710 1158 710 762 
Q 710 269 1050 269 
Q 1312 269 1574 499 
Q 1901 781 2166 1341 
Q 2432 1901 2432 2298 
z
" transform="scale(0.015625)"/>
     <path id="STIXGeneral-Regular-22a4" d="M 4077 3814 
L 2400 3814 
L 2400 0 
L 1978 0 
L 1978 3814 
L 307 3814 
L 307 4237 
L 4077 4237 
L 4077 3814 
z
" transform="scale(0.015625)"/>
     <path id="STIXGeneral-Regular-3a3" d="M 3840 1306 
L 3661 0 
L 192 0 
L 192 96 
L 1901 2074 
L 192 4141 
L 192 4237 
L 3558 4237 
L 3558 3206 
L 3398 3206 
Q 3328 3674 3110 3834 
Q 2893 3994 2438 3994 
L 1107 3994 
L 2464 2349 
L 947 608 
L 2931 608 
Q 3290 608 3453 768 
Q 3616 928 3693 1306 
L 3840 1306 
z
" transform="scale(0.015625)"/>
     <path id="STIXGeneral-Italic-6c" d="M 1786 4339 
L 806 595 
Q 755 410 755 320 
Q 755 205 864 205 
Q 1037 205 1293 570 
L 1453 794 
L 1542 730 
Q 1254 275 1046 102 
Q 838 -70 576 -70 
Q 262 -70 262 288 
Q 262 397 288 480 
L 1165 3834 
Q 1184 3898 1184 3955 
Q 1184 4096 870 4096 
L 755 4096 
L 755 4198 
Q 1203 4250 1747 4371 
L 1786 4339 
z
" transform="scale(0.015625)"/>
     <path id="STIXGeneral-Regular-28" d="M 1946 -1030 
L 1869 -1133 
Q 1126 -710 716 32 
Q 307 774 307 1613 
Q 307 3386 1888 4326 
L 1946 4224 
Q 1293 3667 1075 3126 
Q 858 2586 858 1632 
Q 858 685 1082 96 
Q 1306 -493 1946 -1030 
z
" transform="scale(0.015625)"/>
     <path id="STIXGeneral-Italic-54" d="M 4051 4179 
L 3770 3130 
L 3661 3142 
Q 3680 3302 3680 3437 
Q 3680 3955 3034 3955 
L 2662 3955 
L 1786 819 
Q 1696 506 1696 397 
Q 1696 250 1766 195 
Q 1837 141 2035 122 
L 2259 102 
L 2259 0 
L 416 0 
L 416 102 
Q 749 134 889 230 
Q 1030 326 1101 582 
L 2016 3955 
Q 1254 3955 988 3817 
Q 723 3680 493 3162 
L 378 3187 
L 646 4179 
L 4051 4179 
z
" transform="scale(0.015625)"/>
     <path id="STIXGeneral-Regular-61" d="M 2829 422 
L 2829 243 
Q 2586 -64 2253 -64 
Q 1888 -64 1843 403 
L 1837 403 
Q 1427 -64 909 -64 
Q 608 -64 422 112 
Q 237 288 237 602 
Q 237 1050 685 1350 
Q 992 1555 1837 1869 
L 1837 2214 
Q 1837 2502 1699 2646 
Q 1562 2790 1338 2790 
Q 1146 2790 1018 2697 
Q 890 2605 890 2477 
Q 890 2419 909 2348 
Q 928 2278 928 2208 
Q 928 2112 841 2029 
Q 755 1946 634 1946 
Q 525 1946 441 2029 
Q 358 2112 358 2240 
Q 358 2547 685 2752 
Q 986 2944 1421 2944 
Q 1939 2944 2176 2656 
Q 2291 2522 2323 2384 
Q 2355 2246 2355 1946 
L 2355 723 
Q 2355 301 2554 301 
Q 2682 301 2829 422 
z
M 1837 813 
L 1837 1715 
Q 1248 1510 1018 1293 
Q 800 1094 800 800 
Q 800 557 921 432 
Q 1043 307 1242 307 
Q 1453 307 1613 410 
Q 1747 506 1792 589 
Q 1837 672 1837 813 
z
" transform="scale(0.015625)"/>
     <path id="STIXGeneral-Regular-78" d="M 3066 0 
L 1779 0 
L 1779 96 
Q 1939 109 1987 137 
Q 2035 166 2035 250 
Q 2035 307 1997 365 
L 1414 1261 
L 909 474 
Q 781 275 781 211 
Q 781 96 1037 96 
L 1037 0 
L 109 0 
L 109 96 
Q 269 109 355 169 
Q 442 230 576 422 
L 1306 1478 
L 704 2400 
Q 557 2624 454 2704 
Q 352 2784 211 2784 
L 154 2784 
L 154 2880 
L 1478 2880 
L 1478 2784 
Q 1203 2778 1203 2643 
Q 1203 2509 1498 2074 
Q 1581 1958 1587 1946 
Q 1619 1990 1779 2227 
Q 1811 2285 1856 2349 
Q 1901 2413 1923 2451 
Q 1946 2490 1971 2528 
Q 1997 2566 2006 2595 
Q 2016 2624 2016 2643 
Q 2016 2765 1760 2784 
L 1760 2880 
L 2771 2880 
L 2771 2784 
Q 2445 2771 2253 2502 
L 1722 1734 
L 2541 480 
Q 2790 96 3066 96 
L 3066 0 
z
" transform="scale(0.015625)"/>
     <path id="STIXGeneral-Italic-74" d="M 1894 2739 
L 1862 2534 
L 1325 2534 
L 768 435 
Q 755 384 755 346 
Q 755 243 851 243 
Q 928 243 1030 342 
Q 1133 442 1370 749 
L 1453 704 
Q 1158 256 969 93 
Q 781 -70 538 -70 
Q 243 -70 243 166 
Q 243 230 346 640 
L 845 2534 
L 365 2534 
L 358 2573 
Q 358 2688 570 2733 
Q 730 2771 992 2979 
Q 1254 3187 1421 3437 
Q 1459 3494 1510 3494 
Q 1568 3494 1568 3443 
Q 1568 3411 1562 3398 
L 1382 2739 
L 1894 2739 
z
" transform="scale(0.015625)"/>
     <path id="STIXGeneral-Regular-29" d="M 186 4224 
L 262 4326 
Q 992 3891 1408 3148 
Q 1824 2406 1824 1581 
Q 1824 -166 243 -1133 
L 186 -1030 
Q 845 -486 1059 54 
Q 1274 595 1274 1562 
Q 1274 2534 1059 3120 
Q 845 3706 186 4224 
z
" transform="scale(0.015625)"/>
    </defs>
    <use xlink:href="#STIXGeneral-Italic-72" transform="translate(0 0.382812)"/>
    <use xlink:href="#STIXGeneral-Italic-69" transform="translate(38.899994 -12.845313) scale(0.7)"/>
    <use xlink:href="#STIXGeneral-Regular-3d" transform="translate(77.209357 0.382812)"/>
    <use xlink:href="#STIXGeneral-Regular-6d" transform="translate(160.149338 0.382812)"/>
    <use xlink:href="#STIXGeneral-Regular-69" transform="translate(237.949326 0.382812)"/>
    <use xlink:href="#STIXGeneral-Regular-64" transform="translate(265.749313 0.382812)"/>
    <use xlink:href="#STIXGeneral-Italic-69" transform="translate(317.292579 -12.845313) scale(0.7)"/>
    <use xlink:href="#STIXGeneral-Regular-2212" transform="translate(355.601942 0.382812)"/>
    <use xlink:href="#STIXGeneral-Italic-3b3" transform="translate(438.541923 0.382812)"/>
    <use xlink:href="#STIXGeneral-Italic-71" transform="translate(479.541908 0.382812)"/>
    <use xlink:href="#STIXGeneral-Regular-22a4" transform="translate(545.823015 35.657812) scale(0.7)"/>
    <use xlink:href="#STIXGeneral-Regular-3a3" transform="translate(608.290377 0.382812)"/>
    <use xlink:href="#STIXGeneral-Italic-6c" transform="translate(670.690371 0.382812)"/>
    <use xlink:href="#STIXGeneral-Italic-69" transform="translate(698.490359 -12.845313) scale(0.7)"/>
    <use xlink:href="#STIXGeneral-Regular-28" transform="translate(722.359725 0.382812)"/>
    <use xlink:href="#STIXGeneral-Italic-54" transform="translate(755.659713 0.382812)"/>
    <use xlink:href="#STIXGeneral-Regular-6d" transform="translate(811.259704 -12.845313) scale(0.7)"/>
    <use xlink:href="#STIXGeneral-Regular-61" transform="translate(865.719695 -12.845313) scale(0.7)"/>
    <use xlink:href="#STIXGeneral-Regular-78" transform="translate(896.799691 -12.845313) scale(0.7)"/>
    <use xlink:href="#STIXGeneral-Regular-2212" transform="translate(950.649052 0.382812)"/>
    <use xlink:href="#STIXGeneral-Italic-74" transform="translate(1033.589033 0.382812)"/>
    <use xlink:href="#STIXGeneral-Regular-29" transform="translate(1061.38902 0.382812)"/>
   </g>
  </g>
 </g>
</svg>
